<svg width="340" height="77" viewBox="0 0 340 77" fill="none" xmlns="http://www.w3.org/2000/svg">
<path d="M167.135 14.4128C239.377 -10.1585 312.193 4.17474 339.57 14.4128L339.57 176.701L-0.569823 176.701L-0.569852 15.0834C25.2309 25.0979 94.8929 38.984 167.135 14.4128Z" fill="url(#paint0_linear_385_4854)"/>
<path d="M171.435 27.7116C99.1932 3.14033 26.3777 17.4736 -0.999753 27.7116L-0.999724 190L339.14 190L339.14 28.3822C313.339 38.3967 243.677 52.2829 171.435 27.7116Z" fill="url(#paint1_linear_385_4854)"/>
<path d="M183.475 34.2629C255.718 9.69164 312.623 17.4735 340 27.7116L340 190L-0.139892 190L-0.139923 16.2905C25.6608 26.305 111.233 58.8342 183.475 34.2629Z" fill="url(#paint2_linear_385_4854)"/>
<defs>
<linearGradient id="paint0_linear_385_4854" x1="254.858" y1="176.701" x2="251.248" y2="-15.4528" gradientUnits="userSpaceOnUse">
<stop stop-color="white"/>
<stop offset="1" stop-color="white" stop-opacity="0"/>
</linearGradient>
<linearGradient id="paint1_linear_385_4854" x1="83.7128" y1="190" x2="87.3222" y2="-2.154" gradientUnits="userSpaceOnUse">
<stop stop-color="white"/>
<stop offset="1" stop-color="white" stop-opacity="0"/>
</linearGradient>
<linearGradient id="paint2_linear_385_4854" x1="255.288" y1="190" x2="251.678" y2="-2.15403" gradientUnits="userSpaceOnUse">
<stop stop-color="white"/>
<stop offset="1" stop-color="white" stop-opacity="0"/>
</linearGradient>
</defs>
</svg>
